HIERARCHY
ROOT SpineBase
{
  OFFSET 0.000000 0.000000 0.000000
  CHANNELS 6 Xposition Yposition Zposition Zrotation Xrotation Yrotation
  JOINT SpineMid
  {
    OFFSET 0.000000 31.747664 0.000000
    CHANNELS 3 Zrotation Xrotation Yrotation
    JOINT SpineShoulder
    {
      OFFSET -0.049443 23.433332 -0.832725
      CHANNELS 3 Zrotation Xrotation Yrotation
      JOINT Neck
      {
        OFFSET -0.007597 7.706825 -0.632507
        CHANNELS 3 Zrotation Xrotation Yrotation
        JOINT Head
        {
          OFFSET -2.868287 14.808612 0.754761
          CHANNELS 3 Zrotation Xrotation Yrotation
          End Site
          {
            OFFSET 0 0 0
          }
        }
      }
      JOINT ShoulderLeft
      {
        OFFSET -18.177509 -5.294436 4.360335
        CHANNELS 3 Zrotation Xrotation Yrotation
        JOINT ElbowLeft
        {
          OFFSET -1.657935 -24.571686 0.932423
          CHANNELS 3 Zrotation Xrotation Yrotation
          JOINT WristLeft
          {
            OFFSET 3.232920 -23.174347 -5.920105
            CHANNELS 3 Zrotation Xrotation Yrotation
            JOINT HandLeft
            {
              OFFSET 1.249972 -7.311200 -2.305754
              CHANNELS 3 Zrotation Xrotation Yrotation
              JOINT HandTipLeft
              {
                OFFSET 1.832281 -7.332484 -0.089243
                CHANNELS 3 Zrotation Xrotation Yrotation
                End Site
                {
                  OFFSET 0 0 0
                }
              }
              JOINT ThumbLeft
              {
                OFFSET -2.985662 -2.258388 -2.118061
                CHANNELS 3 Zrotation Xrotation Yrotation
                End Site
                {
                  OFFSET 0 0 0
                }
              }
            }
          }
        }
      }
      JOINT ShoulderRight
      {
        OFFSET 17.274052 -3.896226 -5.466687
        CHANNELS 3 Zrotation Xrotation Yrotation
        JOINT ElbowRight
        {
          OFFSET 5.603916 -24.850241 0.682156
          CHANNELS 3 Zrotation Xrotation Yrotation
          JOINT WristRight
          {
            OFFSET -2.724974 -21.147921 -8.740612
            CHANNELS 3 Zrotation Xrotation Yrotation
            JOINT HandRight
            {
              OFFSET -2.884470 -3.723405 -2.010135
              CHANNELS 3 Zrotation Xrotation Yrotation
              JOINT HandTipRight
              {
                OFFSET -1.137237 -5.639543 -2.492973
                CHANNELS 3 Zrotation Xrotation Yrotation
                End Site
                {
                  OFFSET 0 0 0
                }
              }
              JOINT ThumbRight
              {
                OFFSET 3.294310 -1.968852 -1.503089
                CHANNELS 3 Zrotation Xrotation Yrotation
                End Site
                {
                  OFFSET 0 0 0
                }
              }
            }
          }
        }
      }
    }
  }
  JOINT HipLeft
  {
    OFFSET -7.707787 -0.336240 -1.811075
    CHANNELS 3 Zrotation Xrotation Yrotation
    JOINT KneeLeft
    {
      OFFSET 3.883597 -33.830242 5.949043
      CHANNELS 3 Zrotation Xrotation Yrotation
      JOINT AnkleLeft
      {
        OFFSET 8.852774 -38.964745 9.428567
        CHANNELS 3 Zrotation Xrotation Yrotation
        JOINT FootLeft
        {
          OFFSET -1.831578 -5.927921 -5.667337
          CHANNELS 3 Zrotation Xrotation Yrotation
          End Site
          {
            OFFSET 0 0 0
          }
        }
      }
    }
  }
  JOINT HipRight
  {
    OFFSET 7.896922 0.925810 -6.012065
    CHANNELS 3 Zrotation Xrotation Yrotation
    JOINT KneeRight
    {
      OFFSET 4.367452 -33.215481 -2.029652
      CHANNELS 3 Zrotation Xrotation Yrotation
      JOINT AnkleRight
      {
        OFFSET 3.050678 -39.488856 10.252062
        CHANNELS 3 Zrotation Xrotation Yrotation
        JOINT FootRight
        {
          OFFSET -4.771784 -6.371013 -2.723841
          CHANNELS 3 Zrotation Xrotation Yrotation
          End Site
          {
            OFFSET 0 0 0
          }
        }
      }
    }
  }
}
MOTION
Frames: 14
Frame Time: 0.033333
-18.913674 78.014208 365.557990 0.559685 -3.036371 8.145761 -0.537072 0.100480 -8.121993 -0.010345 0.214897 0.003624 -3.274259 3.628759 0.516147 0.000000 0.000000 0.000000 -6.326920 -1.700900 0.125893 22.369452 38.068156 -5.085971 27.707245 -11.071595 2.287780 -44.331537 26.175205 13.815836 0.000000 0.000000 0.000000 0.000000 0.000000 0.000000 1.196359 8.282305 1.155958 -30.957952 2.716667 8.953548 23.597336 -42.078059 17.125486 -29.858580 35.213354 10.591090 0.000000 0.000000 0.000000 0.000000 0.000000 0.000000 -4.240355 -1.340941 -9.237540 -0.445177 3.107596 -0.056147 -2.662818 -6.573091 10.436287 0.000000 0.000000 0.000000 3.993275 14.291998 -7.370565 3.092932 3.385376 1.437480 14.905446 0.076116 -22.893460 0.000000 0.000000 0.000000
-18.235335 77.790098 364.048546 -0.559210 -3.679917 7.785002 -0.555176 0.122142 -7.831575 0.055091 0.233684 -0.042935 -4.856092 4.140356 0.902952 0.000000 0.000000 0.000000 -6.153422 -0.308258 0.229067 24.759603 40.137575 -5.665296 28.082514 -13.169370 3.619091 -33.645054 25.783149 12.946226 0.000000 0.000000 0.000000 0.000000 0.000000 0.000000 -1.267094 9.215658 1.574112 -29.474978 1.670641 9.584496 25.180257 -44.257873 18.294993 -33.536784 39.744077 14.619775 0.000000 0.000000 0.000000 0.000000 0.000000 0.000000 -3.758791 -2.039624 -9.183136 -0.114679 3.371818 -0.090253 -1.058097 -8.451305 10.584946 0.000000 0.000000 0.000000 4.808367 14.412965 -7.083329 4.175985 5.946559 1.804803 15.200038 -0.023134 -25.190585 0.000000 0.000000 0.000000
-17.456318 77.528281 362.014382 -1.990196 -4.464220 7.405131 -0.609855 0.131273 -7.558833 0.178648 0.374273 -0.099921 -5.495225 4.977617 1.342883 0.000000 0.000000 0.000000 -5.659246 0.896679 0.369462 26.168744 43.659302 -5.794943 34.335492 -20.027157 7.711591 -17.884246 23.376472 12.486456 0.000000 0.000000 0.000000 0.000000 0.000000 0.000000 -3.128693 9.792108 1.957431 -28.336852 1.375469 10.513783 19.549641 -46.798440 18.924915 -31.598028 53.704514 17.556738 0.000000 0.000000 0.000000 0.000000 0.000000 0.000000 -3.014124 -2.624125 -9.163354 0.191955 3.200535 -0.253682 0.511403 -7.450488 10.015738 0.000000 0.000000 0.000000 5.979431 14.633279 -6.837612 4.926931 7.919122 2.025996 15.073901 -1.737488 -25.104572 0.000000 0.000000 0.000000
-16.585919 77.347051 359.813395 -3.464575 -5.127893 7.717096 -0.606163 0.176343 -7.996166 0.253060 0.454520 -0.158267 -6.512497 5.145201 1.706844 0.000000 0.000000 0.000000 -5.271392 1.874221 0.513886 26.794897 45.433143 -5.407762 42.249367 -26.360621 12.639566 -8.626081 24.260074 11.971021 0.000000 0.000000 0.000000 0.000000 0.000000 0.000000 -4.322010 9.763642 2.166561 -26.972022 2.297267 11.573007 12.456479 -45.474917 16.221541 -25.993822 56.019745 15.799384 0.000000 0.000000 0.000000 0.000000 0.000000 0.000000 -2.415045 -3.193142 -9.888382 0.625437 2.852492 -0.452039 2.050568 -5.227677 8.962376 0.000000 0.000000 0.000000 6.950282 14.147802 -7.294647 5.952808 9.317496 2.208346 16.004973 -2.693203 -25.399565 0.000000 0.000000 0.000000
-15.580253 77.208508 357.303157 -4.925908 -5.913453 8.670597 -0.652759 0.126945 -9.099533 0.246619 0.412151 -0.224603 -7.589819 5.545830 2.146505 0.000000 0.000000 0.000000 -6.159769 1.058836 0.703558 29.156471 48.421469 -5.968487 47.851192 -31.707224 17.063244 -3.192184 24.879833 10.888593 0.000000 0.000000 0.000000 0.000000 0.000000 0.000000 -4.400944 9.671870 2.191817 -25.007624 3.187177 12.202238 4.083455 -41.032028 13.360915 -15.096743 54.715498 8.829563 0.000000 0.000000 0.000000 0.000000 0.000000 0.000000 -2.127771 -3.543566 -11.318201 1.221723 2.415710 -0.673106 2.848748 -5.351817 9.769044 0.000000 0.000000 0.000000 7.811288 13.416152 -8.426215 6.818818 9.314858 2.238689 17.092659 -2.412291 -25.432220 0.000000 0.000000 0.000000
-14.744385 76.956063 355.076223 -6.097159 -6.690674 9.494740 -0.526177 0.131603 -10.066131 0.257452 0.428801 -0.268513 -10.957843 4.603052 2.468259 0.000000 0.000000 0.000000 -7.963979 -0.875160 0.785057 32.997558 51.378370 -7.601193 38.063154 -26.628142 11.774143 6.793699 11.448066 12.823597 0.000000 0.000000 0.000000 0.000000 0.000000 0.000000 -4.573871 9.599473 2.193047 -25.457271 4.333105 13.558416 -6.445522 -32.892887 9.212262 -4.465506 44.027335 3.022203 0.000000 0.000000 0.000000 0.000000 0.000000 0.000000 -1.831336 -3.447939 -12.495950 1.383896 1.648416 -0.987171 3.880991 -4.995006 10.295413 0.000000 0.000000 0.000000 8.714071 13.078681 -9.455630 7.109581 9.006831 2.180967 18.330545 -2.891410 -24.633264 0.000000 0.000000 0.000000
-13.720800 77.238999 352.785162 -7.094207 -7.523490 10.655184 -0.335011 0.213014 -11.367891 0.256465 0.500577 -0.299351 -14.067406 3.649360 2.697223 0.000000 0.000000 0.000000 -10.070392 -4.654453 0.623142 35.571065 55.675733 -8.973766 17.114251 -17.616967 3.708409 44.891755 -11.520574 24.189143 0.000000 0.000000 0.000000 0.000000 0.000000 0.000000 -4.111107 9.741137 2.172484 -26.314906 5.308296 14.528989 -10.195532 -24.557108 6.490859 -3.647028 32.721124 3.420920 0.000000 0.000000 0.000000 0.000000 0.000000 0.000000 -2.143073 -3.094934 -14.050126 1.875412 1.080420 -1.230921 4.131117 -3.007059 10.868372 0.000000 0.000000 0.000000 9.056135 12.270156 -10.809069 7.500757 8.564468 2.040588 19.354701 -3.296485 -23.078371 0.000000 0.000000 0.000000
-13.078080 77.148564 350.772719 -7.966397 -8.275747 12.172419 -0.101285 0.222882 -13.029021 0.204400 0.419244 -0.332707 -18.790798 2.473788 3.042463 0.000000 0.000000 0.000000 -10.841751 -4.499184 0.756056 39.010674 54.309266 -10.714075 10.697944 -16.857682 2.020609 45.716985 -11.330057 22.136267 0.000000 0.000000 0.000000 0.000000 0.000000 0.000000 -2.959318 10.407156 2.181412 -29.861707 4.916536 15.842295 -6.963398 -15.112678 3.112368 -4.888647 22.055942 4.461950 0.000000 0.000000 0.000000 0.000000 0.000000 0.000000 -2.104322 -2.693066 -15.853799 1.922603 0.365134 -1.535114 1.931303 -3.990393 15.482651 0.000000 0.000000 0.000000 10.079238 11.286266 -12.665821 7.047240 8.094411 1.884452 18.797630 -3.030634 -21.350622 0.000000 0.000000 0.000000
-12.448868 77.100534 348.912224 -8.746046 -8.885053 14.247643 0.035574 0.229234 -15.237038 0.310245 0.420744 -0.360055 -23.350290 0.699934 3.009280 0.000000 0.000000 0.000000 -10.714137 -1.363989 1.166814 40.100323 50.265457 -10.205281 61.062310 -39.412647 25.758912 -31.087173 44.858293 18.121253 0.000000 0.000000 0.000000 0.000000 0.000000 0.000000 -2.079305 10.891552 2.171616 -32.211615 4.660208 16.709023 -5.029755 -10.631532 1.453335 -6.022519 17.914998 5.622480 0.000000 0.000000 0.000000 0.000000 0.000000 0.000000 -2.321813 -2.502094 -18.253487 2.168147 0.184668 -1.689581 0.777978 -3.116213 17.663881 0.000000 0.000000 0.000000 10.790244 9.810756 -15.040189 6.809066 7.826096 1.749537 19.190584 -2.262675 -20.631748 0.000000 0.000000 0.000000
-11.788811 77.065757 346.997666 -9.037918 -9.072839 15.760617 0.126160 0.128965 -16.808382 0.246120 0.103089 -0.392147 -27.146635 -1.411332 2.525144 0.000000 0.000000 0.000000 -9.741217 3.617670 1.703384 42.332804 42.728933 -10.134744 85.372786 -46.415988 45.998534 -88.768302 55.014649 55.954822 0.000000 0.000000 0.000000 0.000000 0.000000 0.000000 -1.187929 11.662146 2.192219 -34.954707 3.399778 17.207036 -0.211428 -11.341508 0.438549 -4.903162 12.988530 2.917490 0.000000 0.000000 0.000000 0.000000 0.000000 0.000000 -3.344405 -3.198916 -20.185371 2.524168 1.019323 -1.619920 0.551463 -1.462551 18.098854 0.000000 0.000000 0.000000 10.512688 7.906240 -16.731838 6.803917 8.564729 1.668621 18.333036 -0.805649 -20.500230 0.000000 0.000000 0.000000
-11.219306 77.100818 345.345126 -9.350738 -9.419559 16.477097 -0.079261 -0.027305 -17.599976 0.372010 0.126698 -0.411771 -29.879961 -2.988192 2.095208 0.000000 0.000000 0.000000 -7.663697 9.761796 2.126223 47.822428 29.530218 -10.533533 45.233851 -38.475063 18.790094 -64.747236 40.818109 34.565483 0.000000 0.000000 0.000000 0.000000 0.000000 0.000000 -0.892340 12.064036 2.204491 -35.189779 2.263343 17.174209 4.611018 -17.938003 1.296812 -11.238712 21.043271 5.665962 0.000000 0.000000 0.000000 0.000000 0.000000 0.000000 -4.047498 -3.781803 -21.290301 2.534702 1.968713 -1.526420 0.252830 -1.314611 19.340385 0.000000 0.000000 0.000000 10.196134 6.526651 -17.654664 6.836900 9.192153 1.599018 17.603226 0.332986 -20.205725 0.000000 0.000000 0.000000
-10.729604 77.138210 344.010757 -9.493218 -9.510664 17.185947 -0.067189 -0.035265 -18.334555 0.330150 -0.031754 -0.430234 -31.112993 -3.737466 1.858969 0.000000 0.000000 0.000000 -4.621851 17.399220 2.179510 51.868589 14.045327 -7.131320 34.353320 -35.480248 13.640997 -71.847635 39.982615 39.028810 0.000000 0.000000 0.000000 0.000000 0.000000 0.000000 -0.078063 12.072148 2.038019 -38.918977 1.457959 18.450593 9.071278 -24.761918 1.849910 -12.916574 28.551232 6.457001 0.000000 0.000000 0.000000 0.000000 0.000000 0.000000 -4.681481 -4.328273 -22.282937 2.251227 2.743976 -1.446507 0.644762 -3.444886 20.959829 0.000000 0.000000 0.000000 9.683914 5.015455 -18.526815 6.865281 9.960689 1.553341 17.101621 1.282902 -20.036702 0.000000 0.000000 0.000000
-10.438972 77.163150 342.867942 -9.867271 -9.804305 17.717570 -0.360465 -0.198348 -18.947814 0.275040 -0.097381 -0.463966 -28.123070 -3.123068 1.947517 0.000000 0.000000 0.000000 -1.663712 22.997160 1.947590 56.229809 3.865327 -3.687907 33.921064 -39.292161 16.904930 -83.105875 41.693148 49.348814 0.000000 0.000000 0.000000 0.000000 0.000000 0.000000 0.183378 12.614819 2.125914 -41.227263 -0.534856 19.129518 8.441469 -28.165313 2.946762 -7.416933 31.215821 2.255056 0.000000 0.000000 0.000000 0.000000 0.000000 0.000000 -4.497594 -4.523651 -22.984235 1.587964 2.927202 -1.498190 1.313251 -4.300488 21.767309 0.000000 0.000000 0.000000 9.956147 4.055308 -19.289395 6.503435 10.130553 1.527061 16.927547 1.968582 -19.764006 0.000000 0.000000 0.000000
-10.202415 77.237741 342.040929 -10.217443 -10.116220 18.252177 -0.711642 -0.347136 -19.563916 0.129127 -0.248018 -0.506304 -25.232309 -2.600120 1.956218 0.000000 0.000000 0.000000 0.340130 26.823665 1.754002 59.180523 -2.331554 -0.635563 37.348649 -43.204869 21.699386 -93.462998 41.863100 59.109003 0.000000 0.000000 0.000000 0.000000 0.000000 0.000000 -0.081189 13.773504 2.509421 -42.417039 -2.967071 19.023867 20.358331 -30.708586 1.707106 -17.327230 31.856339 7.059870 0.000000 0.000000 0.000000 0.000000 0.000000 0.000000 -4.172169 -4.547331 -23.625532 0.835377 2.998076 -1.556873 4.698413 -10.798801 22.849245 0.000000 0.000000 0.000000 10.155316 3.287109 -20.026412 6.362377 10.444389 1.523579 16.663240 2.393144 -19.510407 0.000000 0.000000 0.000000
